<svg width="26" height="29" viewBox="0 0 26 29" fill="none" xmlns="http://www.w3.org/2000/svg">
<rect x="16.5454" y="23.6362" width="4.72727" height="4.72727" fill="#216EAC"/>
<rect x="18.9092" y="23.6362" width="4.72727" height="4.72727" fill="#216EAC"/>
<rect x="11.8184" y="11.8181" width="4.72727" height="4.72727" fill="#216EAC"/>
<rect x="9.45459" y="9.45435" width="4.72727" height="4.72727" fill="#216EAC"/>
<rect x="7.09082" y="7.09082" width="4.72727" height="4.72727" fill="#216EAC"/>
<rect x="9.45459" y="14.1816" width="4.72727" height="4.72727" fill="#216EAC"/>
<rect x="7.09082" y="16.5454" width="4.72727" height="4.72727" fill="#216EAC"/>
<rect x="4.72705" y="11.8181" width="4.72727" height="4.72727" fill="#216EAC"/>
<rect y="11.8181" width="4.72727" height="4.72727" fill="#216EAC"/>
<rect x="21.2729" y="21.2727" width="4.72727" height="4.72727" fill="#216EAC"/>
<rect x="21.2729" y="18.9089" width="4.72727" height="4.72727" fill="#216EAC"/>
<rect x="21.2729" y="14.1816" width="4.72727" height="4.72727" fill="#216EAC"/>
<rect x="21.2729" y="9.45435" width="4.72727" height="4.72727" fill="#216EAC"/>
<rect x="21.2729" y="4.72705" width="4.72727" height="4.72727" fill="#216EAC"/>
<rect x="16.5454" width="4.72727" height="4.72727" fill="#216EAC"/>
<rect x="18.9092" width="4.72727" height="4.72727" fill="#216EAC"/>
<rect x="21.2729" y="2.36353" width="4.72727" height="4.72727" fill="#216EAC"/>
</svg>
